<?xml version="1.0" encoding="UTF-8"?>
<!DOCTYPE svg PUBLIC "-//W3C//DTD SVG 1.1//EN" "http://www.w3.org/Graphics/SVG/1.1/DTD/svg11.dtd">
<svg version="1.1" xmlns="http://www.w3.org/2000/svg" xmlns:xlink="http://www.w3.org/1999/xlink" x="0" y="0" width="157" height="167.4" viewBox="0, 0, 157, 167.4">
  <g id="Background">
    <rect x="0" y="0" width="157" height="167.4" fill="#000000" fill-opacity="0"/>
  </g>
  <g id="first_group">
    <path d="M151.3,113.8 L151.3,53.5 C151.3,46.3 147.4,39.6 141.2,36 L88.6,5.8 C82.4,2.2 74.7,2.2 68.4,5.8 L15.9,36 C9.6,39.6 5.8,46.3 5.8,53.5 L5.8,113.8 C5.8,121 9.7,127.7 15.9,131.4 L68.4,161.6 C74.6,165.2 82.3,165.2 88.6,161.6 L141.1,131.4 C147.4,127.7 151.3,121.1 151.3,113.8 z" fill="#74C1E7" id="window_svg___x3C_g_x3E_" opacity="0.2"/>
    <path d="M80.9,108.2 L82.4,108.2 L82.4,133.8 L80.9,133.8 z" fill="#073A53"/>
    <path d="M81.6,123.5 L53.7,123.5 C50.1,123.5 47.2,120.6 47.2,117 L47.2,107 C47.2,104.6 45.3,102.7 42.9,102.7 L32.5,102.7 C28.7,102.7 25.6,99.6 25.6,95.8 L25.6,78.9 L27.1,78.9 L27.1,95.7 C27.1,98.7 29.5,101.1 32.5,101.1 L42.8,101.1 C46,101.1 48.6,103.7 48.6,106.9 L48.6,116.9 C48.6,119.7 50.8,121.9 53.6,121.9 L81.5,121.9 L81.5,123.5 z M97.8,134.5 L80.1,134.5 L80.1,133 L97.9,133 C99.5,132.8 100.6,131.4 100.5,129.8 L100.5,118 L102,118 L102,129.8 C102.1,132.2 100.3,134.3 97.8,134.5 z" fill="#073A53"/>
    <path d="M85.6,133 C85.6,135.209 83.809,137 81.6,137 C79.391,137 77.6,135.209 77.6,133 C77.6,130.791 79.391,129 81.6,129 C83.809,129 85.6,130.791 85.6,133 z" fill="#74C1E7"/>
    <path d="M81.6,137.7 C79,137.7 76.9,135.6 76.9,132.9 C76.9,130.2 79,128.2 81.7,128.2 C84.4,128.2 86.4,130.3 86.4,133 C86.3,135.6 84.2,137.7 81.6,137.7 z M81.6,129.7 C79.8,129.7 78.4,131.2 78.4,133 C78.4,134.8 79.9,136.2 81.7,136.2 C83.5,136.2 84.9,134.8 84.9,133 C84.8,131.2 83.4,129.7 81.6,129.7 z" fill="#073A53"/>
    <path d="M78.5,105 L78.5,109.5 C78.5,111.1 79.7,112.2 81.7,112.2 C83.3,112.3 84.7,111.1 84.8,109.6 L84.8,105 L78.5,105 z" fill="#FDD52F"/>
    <path d="M81.8,112.9 C80.7,113 79.5,112.5 78.7,111.7 C78.1,111.1 77.8,110.2 77.8,109.4 L77.7,104.2 L85.6,104.2 L85.6,109.5 C85.6,110.4 85.2,111.2 84.6,111.8 C83.9,112.5 82.9,112.9 81.8,112.9 z M79.3,105.7 L79.3,109.5 C79.3,110 79.4,110.4 79.7,110.8 C80.2,111.3 81,111.5 81.7,111.5 C82.4,111.5 83,111.3 83.5,110.8 C83.8,110.5 84,110 84.1,109.5 L84.1,105.7 L79.3,105.7 z" fill="#073A53"/>
    <path d="M105.3,119.8 C105.3,122.064 103.464,123.9 101.2,123.9 C98.936,123.9 97.1,122.064 97.1,119.8 C97.1,117.536 98.936,115.7 101.2,115.7 C103.464,115.7 105.3,117.536 105.3,119.8 z" fill="#FDD52F"/>
    <path d="M101.2,124.7 C98.5,124.7 96.3,122.5 96.3,119.8 C96.3,117.1 98.5,114.9 101.2,114.9 C103.9,114.9 106.1,117.1 106.1,119.8 C106.1,122.5 103.9,124.7 101.2,124.7 z M101.2,116.4 C99.3,116.4 97.8,117.9 97.8,119.8 C97.8,121.7 99.3,123.2 101.2,123.2 C103.1,123.2 104.6,121.7 104.6,119.8 C104.6,117.9 103.1,116.4 101.2,116.4 z" fill="#073A53"/>
    <path d="M30.5,78.9 C30.5,81.164 28.664,83 26.4,83 C24.136,83 22.3,81.164 22.3,78.9 C22.3,76.636 24.136,74.8 26.4,74.8 C28.664,74.8 30.5,76.636 30.5,78.9 z" fill="#FDD52F"/>
    <path d="M26.4,83.8 C23.7,83.8 21.5,81.6 21.5,78.9 C21.5,76.2 23.7,74 26.4,74 C29.1,74 31.3,76.2 31.3,78.9 C31.3,81.6 29.1,83.8 26.4,83.8 z M26.4,75.5 C24.5,75.5 23,77 23,78.9 C23,80.8 24.5,82.3 26.4,82.3 C28.3,82.3 29.8,80.8 29.8,78.9 C29.8,77.1 28.3,75.5 26.4,75.5 z" fill="#073A53"/>
    <path d="M54.6,40 L108.5,40 C111.6,40 114,42.5 114,45.5 L114,99.4 C114,102.5 111.5,104.9 108.5,104.9 L54.6,104.9 C51.5,104.9 49.1,102.4 49.1,99.4 L49.1,45.5 C49.1,42.5 51.6,40 54.6,40 z" fill="#74C1E7"/>
    <path d="M49.5,50.5 L114,50.5 L114,100.5 C114,102.709 112.209,104.5 110,104.5 L53.5,104.5 C51.291,104.5 49.5,102.709 49.5,100.5 L49.5,50.5 z" fill="#6C6C6C"/>
    <path d="M108.5,105.7 L54.6,105.7 C51.1,105.7 48.3,102.9 48.3,99.4 L48.3,45.5 C48.3,42 51.1,39.2 54.6,39.2 L108.5,39.2 C112,39.2 114.8,42 114.8,45.5 L114.8,99.4 C114.8,102.9 112,105.7 108.5,105.7 z M54.6,40.7 C52,40.7 49.8,42.8 49.8,45.5 L49.8,99.4 C49.8,102 51.9,104.2 54.6,104.2 L108.5,104.2 C111.1,104.2 113.3,102.1 113.3,99.4 L113.3,45.5 C113.3,42.9 111.2,40.7 108.5,40.7 L54.6,40.7 z" fill="#073A53"/>
    <path d="M49.5,49.7 L114.6,49.7 L114.6,50.5 L49.5,50.5 z" fill="#073A53"/>
    <path d="M59.1,45.3 C59.1,46.349 58.249,47.2 57.2,47.2 C56.151,47.2 55.3,46.349 55.3,45.3 C55.3,44.251 56.151,43.4 57.2,43.4 C58.249,43.4 59.1,44.251 59.1,45.3 z" fill="#B7DFE4"/>
    <path d="M57.2,47.5 C55.9,47.5 54.9,46.5 54.9,45.2 C54.9,43.9 55.9,42.9 57.2,42.9 C58.5,42.9 59.5,43.9 59.5,45.2 C59.5,46.5 58.5,47.5 57.2,47.5 z M57.2,43.7 C56.3,43.7 55.7,44.4 55.7,45.2 C55.7,46.1 56.4,46.7 57.2,46.7 C58.1,46.7 58.7,46 58.7,45.2 C58.7,44.4 58,43.7 57.2,43.7 z" fill="#073A53"/>
    <path d="M65.8,45.3 C65.8,46.349 64.949,47.2 63.9,47.2 C62.851,47.2 62,46.349 62,45.3 C62,44.251 62.851,43.4 63.9,43.4 C64.949,43.4 65.8,44.251 65.8,45.3 z" fill="#FFFFFF"/>
    <path d="M63.9,47.5 C62.6,47.5 61.6,46.5 61.6,45.2 C61.6,43.9 62.6,42.9 63.9,42.9 C65.2,42.9 66.2,43.9 66.2,45.2 C66.2,46.5 65.1,47.5 63.9,47.5 z M63.9,43.7 C63,43.7 62.4,44.4 62.4,45.2 C62.4,46.1 63.1,46.7 63.9,46.7 C64.8,46.7 65.4,46 65.4,45.2 C65.4,44.4 64.7,43.7 63.9,43.7 z" fill="#073A53"/>
    <path d="M72.5,45.3 C72.5,46.349 71.649,47.2 70.6,47.2 C69.551,47.2 68.7,46.349 68.7,45.3 C68.7,44.251 69.551,43.4 70.6,43.4 C71.649,43.4 72.5,44.251 72.5,45.3 z" fill="#073A53"/>
    <path d="M54.601,60.054 L54.601,59.357 L55.297,59.357 L55.297,58.661 L55.994,58.661 L55.994,57.964 L55.297,57.964 L55.297,57.268 L54.601,57.268 L54.601,56.571 L53.904,56.571 L53.904,55.875 L55.297,55.875 L55.297,56.571 L55.994,56.571 L55.994,57.268 L56.69,57.268 L56.69,57.964 L57.386,57.964 L57.386,58.661 L56.69,58.661 L56.69,59.357 L55.994,59.357 L55.994,60.054 L55.297,60.054 L55.297,60.75 L53.904,60.75 L53.904,60.054 z" fill="#FFFFFF"/>
    <path d="M61.764,55.875 L61.764,57.964 L63.853,57.964 L63.853,55.875 L65.246,55.875 L65.246,60.75 L63.853,60.75 L63.853,58.661 L61.764,58.661 L61.764,60.75 L60.371,60.75 L60.371,55.875 z" fill="#FFFFFF"/>
    <path d="M70.818,55.875 L70.818,56.571 L67.335,56.571 L67.335,57.964 L70.121,57.964 L70.121,58.661 L67.335,58.661 L67.335,60.054 L70.818,60.054 L70.818,60.75 L65.943,60.75 L65.943,55.875 z" fill="#FFFFFF"/>
    <path d="M72.907,55.875 L72.907,60.054 L76.389,60.054 L76.389,60.75 L71.514,60.75 L71.514,55.875 z" fill="#FFFFFF"/>
    <path d="M79.175,60.054 L79.175,56.571 L77.782,56.571 L77.782,55.875 L81.96,55.875 L81.96,56.571 L80.568,56.571 L80.568,60.054 L81.96,60.054 L81.96,60.75 L77.782,60.75 L77.782,60.054 z" fill="#FFFFFF"/>
    <path d="M83.353,57.268 L83.353,56.571 L84.05,56.571 L84.05,55.875 L86.139,55.875 L86.139,56.571 L86.835,56.571 L86.835,57.268 L87.532,57.268 L87.532,60.75 L86.139,60.75 L86.139,59.357 L84.05,59.357 L84.05,60.75 L82.657,60.75 L82.657,57.268 z M84.05,58.661 L86.139,58.661 L86.139,57.268 L85.443,57.268 L85.443,56.571 L84.746,56.571 L84.746,57.268 L84.05,57.268 z" fill="#FFFFFF"/>
  </g>
</svg>
