<?xml version="1.0" encoding="UTF-8"?>
<!DOCTYPE svg PUBLIC "-//W3C//DTD SVG 1.1//EN" "http://www.w3.org/Graphics/SVG/1.1/DTD/svg11.dtd">
<svg version="1.1" xmlns="http://www.w3.org/2000/svg" xmlns:xlink="http://www.w3.org/1999/xlink" x="0" y="0" width="652.934" height="633.89" viewBox="0, 0, 652.934, 633.89">
  <g id="Layer_1">
    <g>
      <path d="M587.577,467.314 L587.577,166.575 L326.445,16.206 L65.357,166.575 L65.357,467.314 L326.445,617.684 L587.555,467.314 L587.577,467.314 z" fill="#073A53"/>
      <path d="M227.523,500.585 L206.343,527.339 L215.617,500.585 C215.617,500.585 227.512,500.897 227.512,500.585 L227.534,500.585 L227.523,500.585 z" fill="#F7DF1E"/>
      <path d="M188.484,442.618 C181.952,445.906 176.076,453.877 174.561,460.989 C173.045,468.101 170.67,481.946 160.638,485.257 C160.638,485.257 166.691,488.145 173.947,483.195 C181.205,478.257 186.945,467.845 185.63,459.128 C183.824,447.255 188.907,442.428 188.484,442.64 L188.484,442.618 z" fill="#F7DF1E"/>
      <path d="M369.532,393.434 C369.532,393.434 373.155,399.153 388.081,399.02 C402.997,398.864 406.185,392.877 399.508,385.208 C392.808,377.538 384.737,375.186 374.292,377.962 C363.835,380.759 353.669,388.697 359.811,400.669 C365.954,412.642 392.15,449.027 403.153,459.339 C403.153,459.339 412.929,443.866 414.624,431.559 C416.552,417.836 417.366,401.94 409.273,404.448 C401.202,406.935 376.934,413.846 369.532,393.423 L369.532,393.445 L369.532,393.434 z" fill="#F7DF1E"/>
      <path d="M442.693,369.043 C442.693,369.043 449.494,385.219 454.086,392.688 C458.679,400.179 461.332,402.386 474.676,407.091 C488.02,411.783 539.978,430.166 546.344,431.482 C546.344,431.482 494.207,393.858 489.19,390.057 C484.162,386.233 476.281,385.899 469.938,386.389 C460.017,387.114 450.976,381.841 442.671,369.066 L442.693,369.066 L442.693,369.043 z" fill="#F7DF1E"/>
      <path d="M462.569,428.148 C462.569,428.148 459.27,439.508 465,450.755 C470.752,462.003 477.117,463.453 483.46,464.322 C489.803,465.192 500.438,468.402 503.37,477.176 C503.37,477.176 506.915,465.793 497.027,457.89 C487.139,450.008 474.152,450.076 468.745,443.387 C462.469,435.617 463.127,431.927 462.581,428.126 L462.581,428.148 L462.569,428.148 z" fill="#F7DF1E"/>
      <path d="M427.833,462.683 L456.048,522.88 L431.546,495.502 C431.546,495.502 431.68,477.387 425.95,469.907 L427.811,462.683 L427.833,462.683 z" fill="#F7DF1E"/>
      <path d="M399.195,516.192 L395.874,540.716 L388.048,527.629 L399.195,516.192 z" fill="#F7DF1E"/>
      <path d="M532.543,356.391 C518.598,355.399 517.739,340.45 503.169,337.251 C488.599,334.051 474.653,339.413 459.337,334.653 L456.65,330.484 L459.259,324.554 L571.292,307.13 L459.237,289.695 C459.036,289.227 458.98,289.093 458.791,288.614 C462.458,283.441 468.612,277.021 476.058,278.113 C488.254,279.896 498.309,284.333 506.146,278.002 C513.982,271.67 514.663,260.377 529.087,264.056 C544.828,268.057 554.437,266.241 559.353,252.574 C559.353,252.574 547.447,258.192 536.389,252.808 C525.331,247.424 517.594,243.812 507.439,249.319 C497.283,254.825 491.955,253.778 487.73,252.373 C483.538,250.98 470.797,245.863 450.865,254.97 L538.406,184.473 L433.096,225.229 C433.151,218.863 434.534,209.711 441.479,206.345 C452.57,200.96 463.372,198.976 466.293,189.334 C469.214,179.691 463.428,169.982 477.419,164.898 C492.69,159.358 499.613,152.446 495.99,138.378 C495.99,138.378 489.313,149.715 477.14,151.488 C464.966,153.26 456.539,154.62 451.243,164.887 C445.949,175.154 440.943,177.283 436.674,178.498 C432.46,179.691 419.261,182.589 407.969,200.872 C407.746,200.76 407.835,200.804 407.612,200.693 L448.635,94.691 L377.369,183.202 C377.28,183.135 377.313,183.158 377.224,183.091 C387.446,164.185 383.377,151.298 382.307,147.039 C381.226,142.726 380.579,137.33 386.833,127.621 C393.087,117.911 390.066,109.929 385.54,98.492 C381.014,87.055 387.502,75.606 387.502,75.606 C373.501,79.474 370.97,88.927 373.768,104.924 C376.343,119.594 365.04,119.416 358.128,126.751 C351.228,134.086 354.895,144.443 355.753,156.738 C356.3,164.53 348.875,170.338 343.357,173.537 L325.978,61.806 L308.51,174.106 C308.142,174.084 308.287,174.095 307.919,174.062 C307.239,152.625 297.251,143.539 294.197,140.407 C291.098,137.219 287.82,132.883 288.355,121.345 C288.89,109.806 282.258,104.422 272.593,96.82 C262.928,89.217 262.794,76.052 262.794,76.052 C252.638,86.441 255.191,95.883 265.659,108.302 C275.257,119.683 265.391,125.224 263.117,135.034 C260.832,144.844 269.215,151.956 276.138,162.156 C280.429,168.476 277.174,176.982 274.075,182.534 L203.333,94.68 L244.356,200.682 C244.133,200.793 244.222,200.749 243.999,200.86 C232.707,182.578 219.508,179.691 215.294,178.487 C211.014,177.272 206.019,175.143 200.724,164.876 C195.429,154.609 187.002,153.249 174.828,151.477 C162.655,149.704 155.978,138.367 155.978,138.367 C152.355,152.435 159.277,159.347 174.55,164.887 C188.54,169.97 182.754,179.68 185.675,189.323 C188.596,198.965 199.398,200.949 210.489,206.334 C217.434,209.7 218.817,218.852 218.873,225.218 L113.561,184.462 L201.103,254.959 C181.171,245.852 168.43,250.969 164.238,252.362 C160.013,253.767 154.685,254.814 144.529,249.307 C134.374,243.8 126.649,247.413 115.579,252.797 C104.521,258.181 92.615,252.562 92.615,252.562 C97.531,266.229 107.14,268.046 122.881,264.045 C137.306,260.377 137.985,271.659 145.823,277.99 C153.659,284.322 163.703,279.885 175.91,278.102 C183.357,277.009 189.51,283.43 193.177,288.603 C192.977,289.071 192.921,289.205 192.731,289.684 L80.676,307.119 L192.709,324.543 L184.281,329.726 C181.06,331.71 178.607,334.732 177.336,338.287 L175.82,342.534 C174.193,347.094 170.804,350.84 166.379,352.78 C160.258,355.455 154.216,355.421 147.071,354.039 C135.411,351.765 125.857,355.343 118.076,360.594 C112.625,364.272 108.11,374.595 103.93,378.296 C99.749,381.997 89.873,379.021 89.873,379.021 C96.316,389.165 114.999,389.734 119.548,384.182 C127.775,374.127 140.694,372.054 151.608,375.554 C161.619,378.775 174.338,373.302 181.461,366.736 C188.216,360.538 187.67,352.646 197.168,347.049 C205.462,342.156 215.851,342.267 215.851,342.267 C215.495,347.072 213.544,355.7 207.424,362.021 C200.078,369.601 113.517,441.402 113.517,441.402 L208.037,396.132 C209.275,425.15 215.015,456.965 220.266,469.562 C222.529,474.968 225.639,480.029 229.418,485.146 C240.042,499.526 253.664,511.387 269.025,520.517 L269.137,520.45 C285.457,530.171 307.752,541.731 322.868,542.924 C333.559,540.739 335.209,534.329 335.209,524.686 C335.209,515.043 330.872,512.268 326.346,512.012 C321.809,511.744 318.777,508.79 315.924,504.71 C313.058,500.63 321.141,500.217 332.266,500.039 C343.402,499.838 345.643,494.487 348.173,487.955 C350.681,481.434 340.804,480.809 320.895,483.172 C304.062,485.157 298.756,482.426 297.396,480.13 C306.771,471.59 317.774,463.854 323.515,465.337 C333.158,467.889 335.019,462.427 332.667,460.777 C330.571,459.316 320.605,449.485 316.28,446.486 C315.823,446.152 311.196,443.175 311.375,442.651 C314.363,434.112 319.691,437.222 328.911,439.173 C338.129,441.113 346.467,430.467 344.595,426.866 C341.819,421.526 339.69,424.525 334.584,414.281 C329.323,392.632 334.428,356.77 357.002,350.204 C376.734,344.452 398.282,350.795 403.365,352.501 C403.866,352.679 404.357,352.233 404.268,351.731 L398.638,320.239 L394.302,300.397 C394.436,299.806 394.982,299.382 395.595,299.472 C418.938,302.671 434.578,331.71 442.236,342.624 C449.895,353.537 464.398,365.231 476.359,368.486 C488.332,371.775 493.192,366.413 501.285,366.636 C509.378,366.859 513.782,374.484 526.824,374.55 C539.845,374.618 544.627,368.486 552.363,368.375 C558.171,368.286 563.89,371.463 563.89,371.463 C561.07,363.916 546.466,357.395 532.509,356.402 L532.543,356.391 z M236.998,411.839 C239.596,418.973 227.769,423.422 222.841,417.714 C218.427,412.564 219.597,394.427 244.222,397.192 L244.244,397.192 C244.244,397.192 233.654,402.665 236.998,411.839 z M278.445,409.911 C254.188,412.909 247.89,396.99 247.89,396.99 L247.89,396.968 C264.043,402.598 276.439,404.281 278.1,392.654 C279.76,381.027 266.261,374.763 255.125,372.89 C244.434,371.106 230.867,367.138 230.867,361.642 C230.867,356.146 238.37,347.863 266.071,347.863 C293.773,347.863 301.063,363.537 302.825,370.85 C304.597,378.185 302.691,406.912 278.434,409.911 L278.445,409.911 z" fill="#F7DF1E"/>
    </g>
  </g>
</svg>
