<?xml version="1.0" encoding="UTF-8"?>
<!DOCTYPE svg PUBLIC "-//W3C//DTD SVG 1.1//EN" "http://www.w3.org/Graphics/SVG/1.1/DTD/svg11.dtd">
<svg version="1.1" xmlns="http://www.w3.org/2000/svg" xmlns:xlink="http://www.w3.org/1999/xlink" x="0" y="0" width="652.934" height="633.89" viewBox="0, 0, 652.934, 633.89">
  <g id="Layer_1">
    <g>
      <path d="M198.741,574.081 L171.266,608.787 L183.296,574.081 C183.296,574.081 198.727,574.486 198.727,574.081 L198.755,574.081 L198.741,574.081 z" fill="#F7DF1E"/>
      <path d="M148.099,498.885 C139.625,503.15 132.003,513.49 130.037,522.716 C128.071,531.942 124.99,549.902 111.976,554.197 C111.976,554.197 119.828,557.943 129.241,551.522 C138.656,545.116 146.102,531.61 144.396,520.302 C142.054,504.9 148.647,498.638 148.099,498.913 L148.099,498.885 z" fill="#F7DF1E"/>
      <path d="M382.959,435.082 C382.959,435.082 387.658,442.501 407.021,442.328 C426.37,442.126 430.506,434.359 421.844,424.411 C413.153,414.461 402.683,411.41 389.133,415.011 C375.568,418.64 362.381,428.937 370.348,444.467 C378.317,459.999 412.299,507.199 426.573,520.576 C426.573,520.576 439.254,500.504 441.453,484.539 C443.954,466.737 445.01,446.116 434.512,449.37 C424.042,452.596 392.561,461.561 382.959,435.068 L382.959,435.096 L382.959,435.082 z" fill="#F7DF1E"/>
      <path d="M477.865,403.441 C477.865,403.441 486.687,424.425 492.644,434.114 C498.602,443.832 502.044,446.695 519.354,452.798 C536.664,458.885 604.065,482.732 612.323,484.439 C612.323,484.439 544.69,435.632 538.182,430.701 C531.659,425.741 521.436,425.307 513.208,425.943 C500.338,426.883 488.61,420.043 477.836,403.471 L477.865,403.471 L477.865,403.441 z" fill="#F7DF1E"/>
      <path d="M503.648,480.114 C503.648,480.114 499.369,494.85 506.802,509.44 C514.264,524.031 522.52,525.912 530.749,527.04 C538.977,528.168 552.773,532.332 556.576,543.714 C556.576,543.714 561.175,528.948 548.348,518.696 C535.521,508.471 518.674,508.559 511.66,499.882 C503.519,489.803 504.372,485.016 503.664,480.085 L503.664,480.114 L503.648,480.114 z" fill="#F7DF1E"/>
      <path d="M458.588,524.913 L495.189,603.002 L463.405,567.487 C463.405,567.487 463.578,543.988 456.145,534.285 L458.559,524.913 L458.588,524.913 z" fill="#F7DF1E"/>
      <path d="M421.438,594.327 L417.13,626.14 L406.978,609.163 L421.438,594.327 z" fill="#F7DF1E"/>
      <path d="M594.42,387.029 C576.331,385.742 575.216,366.35 556.316,362.2 C537.415,358.049 519.324,365.005 499.456,358.83 L495.97,353.422 L499.355,345.729 L644.687,323.126 L499.326,300.509 C499.065,299.902 498.993,299.728 498.747,299.107 C503.504,292.396 511.488,284.068 521.147,285.485 C536.968,287.798 550.011,293.553 560.178,285.341 C570.343,277.127 571.226,262.477 589.937,267.25 C610.357,272.44 622.822,270.084 629.199,252.355 C629.199,252.355 613.754,259.643 599.409,252.658 C585.065,245.674 575.028,240.989 561.855,248.132 C548.68,255.275 541.769,253.917 536.288,252.094 C530.85,250.287 514.322,243.649 488.466,255.463 L602.026,164.013 L465.415,216.882 C465.487,208.624 467.281,196.752 476.29,192.386 C490.677,185.4 504.69,182.826 508.479,170.318 C512.268,157.809 504.763,145.215 522.912,138.619 C542.722,131.433 551.703,122.466 547.003,104.217 C547.003,104.217 538.341,118.924 522.55,121.224 C506.758,123.522 495.826,125.287 488.956,138.605 C482.089,151.924 475.595,154.686 470.057,156.262 C464.59,157.809 447.468,161.569 432.82,185.286 C432.531,185.141 432.646,185.198 432.357,185.054 L485.573,47.545 L393.125,162.364 C393.009,162.277 393.052,162.307 392.937,162.22 C406.197,137.695 400.919,120.977 399.531,115.452 C398.128,109.857 397.289,102.858 405.402,90.263 C413.515,77.667 409.596,67.312 403.724,52.476 C397.853,37.64 406.27,22.788 406.27,22.788 C388.107,27.805 384.824,40.068 388.454,60.82 C391.794,79.85 377.131,79.619 368.165,89.134 C359.214,98.649 363.971,112.085 365.084,128.034 C365.794,138.142 356.162,145.676 349.004,149.826 L326.459,4.886 L303.799,150.564 C303.322,150.536 303.51,150.55 303.033,150.507 C302.151,122.699 289.194,110.912 285.232,106.849 C281.212,102.714 276.96,97.089 277.654,82.121 C278.348,67.153 269.745,60.169 257.207,50.307 C244.669,40.444 244.495,23.366 244.495,23.366 C231.321,36.843 234.633,49.092 248.212,65.202 C260.663,79.965 247.864,87.153 244.914,99.879 C241.95,112.605 252.825,121.831 261.806,135.062 C267.372,143.261 263.15,154.295 259.129,161.497 L167.361,47.531 L220.577,185.039 C220.288,185.183 220.403,185.126 220.114,185.27 C205.466,161.554 188.344,157.809 182.877,156.247 C177.325,154.671 170.846,151.91 163.977,138.591 C157.108,125.272 146.176,123.508 130.384,121.209 C114.593,118.909 105.931,104.203 105.931,104.203 C101.231,122.452 110.211,131.419 130.023,138.605 C148.171,145.199 140.666,157.795 144.455,170.304 C148.244,182.812 162.257,185.386 176.644,192.371 C185.653,196.738 187.447,208.61 187.52,216.868 L50.907,163.998 L164.468,255.449 C138.612,243.635 122.084,250.273 116.646,252.08 C111.165,253.902 104.254,255.261 91.079,248.117 C77.906,240.973 67.885,245.66 53.525,252.644 C39.18,259.628 23.735,252.339 23.735,252.339 C30.112,270.069 42.577,272.426 62.997,267.235 C81.709,262.477 82.59,277.112 92.758,285.325 C102.923,293.539 115.952,287.783 131.787,285.47 C141.448,284.053 149.43,292.382 154.187,299.093 C153.927,299.7 153.854,299.874 153.608,300.495 L8.248,323.112 L153.579,345.715 L142.646,352.438 C138.468,355.012 135.286,358.932 133.637,363.544 L131.671,369.053 C129.56,374.969 125.164,379.828 119.424,382.345 C111.483,385.815 103.645,385.771 94.377,383.978 C79.251,381.028 66.857,385.669 56.764,392.481 C49.693,397.252 43.836,410.644 38.413,415.445 C32.989,420.246 20.178,416.385 20.178,416.385 C28.536,429.544 52.772,430.282 58.673,423.08 C69.345,410.036 86.104,407.347 100.262,411.888 C113.249,416.066 129.748,408.966 138.988,400.449 C147.751,392.408 147.043,382.171 159.364,374.91 C170.123,368.563 183.6,368.707 183.6,368.707 C183.138,374.94 180.607,386.132 172.668,394.332 C163.139,404.165 50.85,497.307 50.85,497.307 L173.463,438.582 C175.069,476.225 182.515,517.496 189.327,533.837 C192.263,540.85 196.297,547.415 201.199,554.053 C214.981,572.707 232.652,588.093 252.578,599.937 L252.724,599.85 C273.894,612.461 302.816,627.456 322.425,629.004 C336.293,626.17 338.434,617.854 338.434,605.345 C338.434,592.836 332.808,589.236 326.937,588.904 C321.051,588.557 317.118,584.725 313.417,579.432 C309.699,574.139 320.185,573.603 334.616,573.373 C349.062,573.112 351.969,566.17 355.251,557.697 C358.505,549.238 345.692,548.427 319.865,551.492 C298.029,554.067 291.146,550.525 289.382,547.546 C301.543,536.468 315.817,526.432 323.264,528.356 C335.773,531.667 338.187,524.581 335.136,522.441 C332.417,520.546 319.489,507.793 313.879,503.902 C313.286,503.469 307.284,499.607 307.516,498.927 C311.392,487.85 318.304,491.885 330.264,494.416 C342.222,496.932 353.038,483.122 350.61,478.451 C347.009,471.524 344.247,475.414 337.623,462.125 C330.798,434.042 337.421,387.521 366.704,379.003 C392.301,371.541 420.254,379.77 426.848,381.983 C427.497,382.214 428.134,381.635 428.019,380.984 L420.716,340.132 L415.091,314.392 C415.265,313.625 415.973,313.075 416.768,313.192 C447.049,317.342 467.338,355.012 477.272,369.17 C487.207,383.327 506.021,398.496 521.537,402.719 C537.069,406.985 543.373,400.03 553.872,400.319 C564.37,400.608 570.083,410.5 587.002,410.585 C603.893,410.673 610.096,402.719 620.131,402.575 C627.666,402.459 635.084,406.581 635.084,406.581 C631.426,396.79 612.482,388.331 594.376,387.043 L594.42,387.029 z M211.032,458.957 C214.402,468.212 199.06,473.983 192.667,466.579 C186.941,459.898 188.459,436.37 220.403,439.957 L220.432,439.957 C220.432,439.957 206.694,447.057 211.032,458.957 z M264.798,456.456 C233.331,460.345 225.162,439.695 225.162,439.695 L225.162,439.666 C246.116,446.97 262.196,449.153 264.351,434.07 C266.504,418.987 248.993,410.861 234.547,408.432 C220.678,406.118 203.079,400.97 203.079,393.841 C203.079,386.711 212.812,375.966 248.746,375.966 C284.682,375.966 294.139,396.299 296.425,405.785 C298.723,415.301 296.251,452.566 264.784,456.456 L264.798,456.456 z" fill="#F7DF1E"/>
    </g>
  </g>
</svg>
